<svg xmlns="http://www.w3.org/2000/svg" xmlns:xlink="http://www.w3.org/1999/xlink" width="500" zoomAndPan="magnify" viewBox="0 0 375 374.999991" height="500" preserveAspectRatio="xMidYMid meet" version="1.0"><defs><g/></defs><path stroke-linecap="butt" transform="matrix(0, -0.75, 0.75, 0, 55.755963, 220.393654)" fill="none" stroke-linejoin="miter" d="M -0.0011703 6.502466 L 216.946761 6.502466 " stroke="#000000" stroke-width="13" stroke-opacity="1" stroke-miterlimit="4"/><path stroke-linecap="butt" transform="matrix(0.75, 0, 0, 0.75, 55.760062, 55.473361)" fill="none" stroke-linejoin="miter" d="M 0.00220842 6.499061 L 351.330356 6.499061 " stroke="#000000" stroke-width="13" stroke-opacity="1" stroke-miterlimit="4"/><path stroke-linecap="butt" transform="matrix(0, 0.75, -0.75, 0, 319.253098, 64.38187)" fill="none" stroke-linejoin="miter" d="M 0.00125644 6.498923 L 333.699195 6.498923 " stroke="#000000" stroke-width="13" stroke-opacity="1" stroke-miterlimit="4"/><path stroke-linecap="butt" transform="matrix(0.75, -0.000000000000000558, 0.000000000000000558, 0.75, 153.835043, 309.77661)" fill="none" stroke-linejoin="miter" d="M 0.0011924 6.500979 L 220.563707 6.500979 " stroke="#000000" stroke-width="13" stroke-opacity="1" stroke-miterlimit="4"/><g fill="#000000" fill-opacity="1"><g transform="translate(128.147691, 216.309624)"><g><path d="M -11.765625 21.625 L -12.375 10.03125 C -5.207031 10.03125 0.144531 8.296875 3.6875 4.828125 C 7.238281 1.367188 9.015625 -3.820312 9.015625 -10.75 L 9.015625 -90.09375 L 22.21875 -90.09375 L 22.21875 -11.109375 C 22.21875 -3.460938 21.046875 2.769531 18.703125 7.59375 C 16.359375 12.414062 12.691406 15.957031 7.703125 18.21875 C 2.722656 20.488281 -3.765625 21.625 -11.765625 21.625 Z M -11.765625 21.625 "/></g></g></g><g fill="#000000" fill-opacity="1"><g transform="translate(174.716037, 232.124985)"><g><path d="M 85.46875 -11.46875 C 81.300781 -7.300781 76.34375 -4.046875 70.59375 -1.703125 C 64.851562 0.628906 58.597656 1.796875 51.828125 1.796875 C 45.066406 1.796875 38.820312 0.632812 33.09375 -1.6875 C 27.363281 -4.007812 22.382812 -7.28125 18.15625 -11.5 C 13.9375 -15.726562 10.65625 -20.691406 8.3125 -26.390625 C 5.976562 -32.097656 4.8125 -38.316406 4.8125 -45.046875 C 4.8125 -51.804688 5.976562 -58.039062 8.3125 -63.75 C 10.65625 -69.457031 13.9375 -74.410156 18.15625 -78.609375 C 22.382812 -82.816406 27.363281 -86.082031 33.09375 -88.40625 C 38.820312 -90.726562 45.066406 -91.890625 51.828125 -91.890625 C 58.554688 -91.890625 64.789062 -90.71875 70.53125 -88.375 C 76.28125 -86.03125 81.21875 -82.796875 85.34375 -78.671875 L 76.15625 -69.3125 C 73.15625 -72.707031 69.5625 -75.375 65.375 -77.3125 C 61.1875 -79.257812 56.613281 -80.234375 51.65625 -80.234375 C 46.84375 -80.234375 42.414062 -79.363281 38.375 -77.625 C 34.332031 -75.882812 30.804688 -73.421875 27.796875 -70.234375 C 24.796875 -67.054688 22.460938 -63.320312 20.796875 -59.03125 C 19.140625 -54.75 18.3125 -50.085938 18.3125 -45.046875 C 18.3125 -40.003906 19.140625 -35.335938 20.796875 -31.046875 C 22.460938 -26.765625 24.796875 -23.03125 27.796875 -19.84375 C 30.804688 -16.664062 34.332031 -14.203125 38.375 -12.453125 C 42.414062 -10.710938 46.84375 -9.84375 51.65625 -9.84375 C 56.613281 -9.84375 61.1875 -10.8125 65.375 -12.75 C 69.5625 -14.695312 73.132812 -17.375 76.09375 -20.78125 Z M 85.46875 -11.46875 "/></g></g></g></svg>